<svg xmlns="http://www.w3.org/2000/svg" viewBox="0 0 500 500"><defs><style>.cls-1{fill:#84a59d;}.cls-2{fill:#f6bd60;}.cls-3{fill:#944536;}.cls-4{fill:#fee7d5;}.cls-5{fill:#682b23;}.cls-6{fill:#2b3635;}.cls-7{fill:#ff8b00;}.cls-8{fill:#f28482;}</style></defs><g id="OBJECTS"><path class="cls-1" d="M396.13,317.08c-3.09,4.49-5.93,9.15-9.21,13.5a43.82,43.82,0,0,1-9.83,9.44,100,100,0,0,1-12.65,7.32c-4.75,2.39-9.6,4.56-14.51,6.62-4.36,1.84-9.25,3.87-14.08,3.67-1.36-.06-1.38,2.06,0,2.12,4.43.18,8.94-1.43,13-3.06,4.92-2,9.78-4.15,14.55-6.47,8.72-4.25,17.58-9.06,23.86-16.66,4-4.81,7.16-10.24,10.69-15.38C398.71,317.06,396.89,316,396.13,317.08Z"/><path class="cls-1" d="M363.37,310.39c-.63-4.52-1.32-9-.75-13.53A44.33,44.33,0,0,1,366,285.73c1.14-2.82,2.61-6.06,5.48-7.5a.73.73,0,0,1,.85.11c2.35,2.21,1.27,6.52.72,9.25a83,83,0,0,0-1.22,11.58c-.27,5-.34,9.94-.14,14.9.19,4.7.93,9.42.76,14.12a25.23,25.23,0,0,1-1.13,6.73c-.66,2-1.6,3.89-2.39,5.84a.72.72,0,0,1-.62.45.71.71,0,0,1-1.36-.25,62.78,62.78,0,0,0-.11-7.76c-.35-2.78-.86-5.56-1.29-8.34Q364.41,317.63,363.37,310.39Z"/><path class="cls-1" d="M453.33,255.58c-1.43,2.48-4.1,4.09-6.11,6.07a51.15,51.15,0,0,0-6.22,7.47,123.92,123.92,0,0,0-8.41,15.12c-2.4,4.82-4.67,9.78-8,14.07a30.89,30.89,0,0,1-4.91,5.12,46.18,46.18,0,0,1-6.64,4.11c-2.55,1.45-5.08,2.93-7.67,4.3a20.82,20.82,0,0,0-6.31,4.51c-.59.7-1.58-.31-1-1l.18-.19c1.56-2.22,1.34-5.22,1.82-7.78a28.92,28.92,0,0,1,3.33-8.79,76.29,76.29,0,0,1,5-7.46c1.91-2.63,3.76-5.31,5.6-8,3.23-4.73,6.29-9.42,10.66-13.21,4.2-3.63,9.05-6.27,13.8-9.09,2.64-1.58,5.34-3,8.08-4.45,1.88-1,4.12-2.56,6.35-1.86A.72.72,0,0,1,453.33,255.58Z"/><path class="cls-1" d="M451,316.54c-1.07,1.12-2.91,1.33-4.33,1.72a43.1,43.1,0,0,0-6.28,2.52c-3.93,1.76-7.79,3.67-11.8,5.26a68.6,68.6,0,0,1-12.66,3.63c-4.41.84-8.87,1.35-13.33,1.95-1.74.23-3.5.45-5.24.78a11.51,11.51,0,0,0-4.7,1.72.59.59,0,0,1-.91-.25.66.66,0,0,1-.24-.91c.86-1.62,2.55-2.64,4.07-3.55,1.85-1.11,3.62-2.34,5.49-3.41,3.81-2.2,7.82-4,11.72-6.05s7.7-4.05,11.88-5.09c4.39-1.1,8.91-.76,13.36-.34,2.24.2,4.47.46,6.72.58,1.93.1,4.08-.35,5.94.26A.71.71,0,0,1,451,316.54Z"/><path class="cls-1" d="M433.16,349.89A.72.72,0,0,1,433,351c-2.81,2-6.56,2.62-9.87,3.28-7.88,1.58-16,2.4-23.68-.72-3.33-1.35-6.48-3.13-9.86-4.36a54.28,54.28,0,0,0-5.33-1.41,15.55,15.55,0,0,0-5.49-.83c-.9.11-.9-1.3,0-1.41l.34,0,.08-.08a33.75,33.75,0,0,1,12.29-3.82,45.17,45.17,0,0,1,11.5.07c4.3.58,8.36,2,12.51,3.26a46.49,46.49,0,0,0,5.95,1.45c1.33.21,2.68.32,4,.49C428.06,347.26,431.42,347.69,433.16,349.89Z"/><path class="cls-1" d="M379.75,303a51.69,51.69,0,0,1-1-18.55c.66-6.24,2-12.39,3.18-18.55,1-5.35,1.49-11,3.95-16,.44-.9,1.28-2.8,2.61-2.5,1,.21,1.25,1.45,1.42,2.26a32.67,32.67,0,0,1,.38,7.78c-.26,5.73-1.06,11.44-1.39,17.17a75.87,75.87,0,0,0,.84,18.86c.6,3.13,1.7,6.15,2.34,9.27a31.52,31.52,0,0,1,.62,9c-.18,2.16-.54,4.35-.93,6.48-.31,1.73-.7,4-2.1,5.19a.71.71,0,0,1-.54.17.75.75,0,0,1-1.25-.48,11.61,11.61,0,0,0-1.1-3.67C384.37,314,381.27,308.83,379.75,303Z"/><path class="cls-1" d="M416,373.62a.7.7,0,0,1-.14,1.1,8.37,8.37,0,0,1-3,1.23c-1.17.3-2.3.66-3.44,1.05a19.61,19.61,0,0,1-7.26,1.32c-4.05-.2-7.47-2.27-10.83-4.34-3.79-2.33-7.88-4.12-11.67-6.44s-6.81-5.85-10.69-8.16a25.5,25.5,0,0,0-5-2,9.52,9.52,0,0,1-4.3-2.38.69.69,0,0,1-.13-.68.77.77,0,0,1,.44-.89c4-1.62,8.38-1.49,12.53-.79a64.23,64.23,0,0,1,11.37,3.19c3.76,1.37,7.52,2.83,11.18,4.44a51.2,51.2,0,0,1,10.87,6.29c1.77,1.37,3.39,2.95,5.16,4.3a11.19,11.19,0,0,0,2.72,1.57A7.14,7.14,0,0,1,416,373.62Z"/><path class="cls-2" d="M362.14,248.85c2.69-7.44,7.13-14.59,7.27-22.72a1.06,1.06,0,0,0-2.12,0c-.12,7.13-3.82,13.66-6.41,20.12a64.53,64.53,0,0,0-4.49,22c-.25,7.73,2.63,15.2,2,22.94-.63,7.48-3.76,14.58-7.37,21.06-2,3.66-4.19,7.28-6.57,10.73a22.52,22.52,0,0,1-3.54,4.18c-1.13,1-2.4,2.17-2.69,3.73-.24,1.33,1.8,1.9,2,.56s1.56-2.26,2.52-3.12a20.64,20.64,0,0,0,3-3.62c2.19-3.1,4.14-6.36,6-9.63,3.73-6.44,7-13.39,8.26-20.78a37.68,37.68,0,0,0,.09-11.22c-.51-3.84-1.35-7.64-1.61-11.51a52.6,52.6,0,0,1,.71-11.62A61.45,61.45,0,0,1,362.14,248.85Z"/><path class="cls-2" d="M382.13,175c-.63-2.56-1.27-5.11-2-7.64a39.19,39.19,0,0,1-1.69-8.49c0-.54-.8-1-1.21-.5a69.71,69.71,0,0,0-6.6,11.18,66.47,66.47,0,0,0-4.85,12.13,59.22,59.22,0,0,0-2.19,12.73,70.94,70.94,0,0,0,.74,13.81q.53,3.95,1.32,7.86c.26,1.23.55,2.46.77,3.7a26.27,26.27,0,0,0,.84,3.84.89.89,0,0,0,1.65-.18c.05-2.21,1.27-3.91,2.56-5.59a21.37,21.37,0,0,0,3.18-5.44c.79-2.1,1.15-4.32,1.86-6.45a23.88,23.88,0,0,1,3.12-5.69,32.2,32.2,0,0,0,3.19-5.4,17.8,17.8,0,0,0,1.3-6.28C384.3,183.94,383.22,179.38,382.13,175Zm-.3,18.57a25.67,25.67,0,0,1-3.17,5.64,29.92,29.92,0,0,0-3.17,5.48c-.82,2-1.16,4.22-1.83,6.3a21,21,0,0,1-3.55,6.35,13.8,13.8,0,0,0-2.09,3.52c-.28-1.38-.49-2.79-.78-4.16q-.72-3.32-1.23-6.66a77.6,77.6,0,0,1-1.08-13.61,59.88,59.88,0,0,1,6.15-24.62c1-2.12,2.18-4.19,3.31-6.27.88-1.62,1.79-3.24,2.83-4.77.55,4.22,2,8.28,3,12.41,1.1,4.53,2.37,9.1,2.5,13.79A18.69,18.69,0,0,1,381.83,193.52Z"/><path class="cls-2" d="M357.72,242.26c-.48-2.58-.85-5.19-1.36-7.77a49.44,49.44,0,0,0-6.1-16.38,24,24,0,0,0-5.15-6.07,39.56,39.56,0,0,0-7.36-4.37c-5.22-2.65-10.06-6-15.35-8.54a31.41,31.41,0,0,0-9.29-3.06,44.54,44.54,0,0,0-5-.32,9.87,9.87,0,0,0-3.94.41c-.37.15-.73.63-.42,1,.71.94,1.53,1.78,2.33,2.66a25,25,0,0,1,2.54,3.41c1.41,2.14,2.75,4.33,4.19,6.45,2.73,4,5.33,8.12,8.32,11.95A50.26,50.26,0,0,0,331.76,232a43.8,43.8,0,0,0,6.55,3.59,46.65,46.65,0,0,1,6.65,3.9c2.45,1.71,5,3.26,7.5,4.9a6.62,6.62,0,0,1,2.53,2.79,5.38,5.38,0,0,0,1.6,2.3.72.72,0,0,0,1.32-.11C358.6,247.05,358.14,244.55,357.72,242.26ZM356,246a7.06,7.06,0,0,0-2-2.25c-2-1.56-4.33-2.79-6.45-4.21a67.36,67.36,0,0,0-6.6-4.25c-2.23-1.15-4.57-2.08-6.73-3.39-8.54-5.17-14-13.54-19.42-21.64-1.59-2.37-3.14-4.77-4.69-7.17a36.05,36.05,0,0,0-2.29-3.31c-.73-.89-1.56-1.69-2.31-2.55a12.82,12.82,0,0,1,2.4-.08c1.34,0,2.68.06,4,.19a27,27,0,0,1,8.44,2.41c5.07,2.26,9.68,5.39,14.55,8,2.43,1.32,5,2.44,7.32,3.93a20.32,20.32,0,0,1,5.72,5.52,43.81,43.81,0,0,1,6.46,15.15c.68,2.86,1,5.77,1.59,8.65a22.41,22.41,0,0,1,.75,6.58C356.48,247.13,356.29,246.54,356,246Z"/><path class="cls-2" d="M418.69,199c-2.44,0-4.69,1.28-6.95,2.05a64.62,64.62,0,0,0-7.47,3,72.11,72.11,0,0,0-13,8,46,46,0,0,0-10.45,11.16A74.76,74.76,0,0,0,377,230a24.89,24.89,0,0,1-4.26,6c-1.74,1.81-3.55,3.54-5.18,5.46-1.47,1.72-3.08,3.69-3.55,6a.69.69,0,0,0,.4.79.74.74,0,0,0,1.17.29c1.68-1.46,4.18-1.47,6.12-2.47a23.84,23.84,0,0,1,3.09-1.61c1.36-.46,2.79-.71,4.18-1.09a32.35,32.35,0,0,0,12.32-6.75,38.66,38.66,0,0,0,8.85-11.09c2.41-4.47,4.17-9.29,6.94-13.57a33.45,33.45,0,0,1,5.74-6.6,28.8,28.8,0,0,1,3.35-2.69,15.74,15.74,0,0,0,3-2.36A.72.72,0,0,0,418.69,199Zm-6.07,4.55a39.8,39.8,0,0,0-5.28,5.5c-3.12,4.06-5,8.84-7.26,13.41a40.8,40.8,0,0,1-8.48,11.89,31.74,31.74,0,0,1-12.19,7.33c-1.56.48-3.16.75-4.71,1.23a17.62,17.62,0,0,0-3.35,1.64c-1.78,1-3.89,1.19-5.67,2.15a15.86,15.86,0,0,1,2.88-4.31c1.39-1.62,2.88-3.13,4.38-4.64a27.31,27.31,0,0,0,4.34-5.31c1.25-2.12,2.28-4.37,3.54-6.49a44.61,44.61,0,0,1,9.53-11.27,69.06,69.06,0,0,1,12.32-8.19,63.33,63.33,0,0,1,8.21-3.65c1.25-.45,2.51-.87,3.75-1.36.49-.2,1-.4,1.48-.57l-.65.44A27.59,27.59,0,0,0,412.62,203.58Z"/><path class="cls-2" d="M424.08,238.55a7.23,7.23,0,0,0-3.55-.16l-4.18.52a48.51,48.51,0,0,0-9.07,1.93,53.56,53.56,0,0,0-15,7.68c-4.79,3.52-8.88,7.91-13.81,11.25-2.3,1.56-4.79,2.79-7,4.48a28.38,28.38,0,0,0-5.41,5.26,29.46,29.46,0,0,0-3.76,6.53c-.71,1.66-1.7,4.2-.41,5.82a.67.67,0,0,0,1,.58,32.51,32.51,0,0,1,7.22-4,62.68,62.68,0,0,1,7.55-1.52,38.92,38.92,0,0,0,13.53-5.15c8.59-5.52,14-14.58,20.87-21.91a65.29,65.29,0,0,1,6.5-6,23.53,23.53,0,0,1,3.14-2.1,9.12,9.12,0,0,0,2.63-2A.71.71,0,0,0,424.08,238.55Zm-5.71,3.65a66,66,0,0,0-5.93,5.28c-3.54,3.56-6.6,7.57-9.81,11.42s-6.71,7.83-10.86,10.81a35.79,35.79,0,0,1-13.26,5.59c-2.79.62-5.68.84-8.42,1.68a28.94,28.94,0,0,0-7.2,3.82c-.75-1.28.49-3.7,1-4.8a29,29,0,0,1,3.21-5.49,27.13,27.13,0,0,1,5.33-5.21c2.08-1.54,4.39-2.7,6.55-4.14,4.56-3,8.38-7,12.67-10.36a51.8,51.8,0,0,1,14.05-7.91,45.65,45.65,0,0,1,9.21-2.37c1.6-.24,3.21-.39,4.8-.61a15.18,15.18,0,0,1,2.71-.25C421.16,240.62,419.59,241.24,418.37,242.2Z"/><path class="cls-2" d="M355.85,279.48a63.68,63.68,0,0,0-2.33-9.91,57,57,0,0,0-3-8.32,36.36,36.36,0,0,0-10.37-12.82c-5-3.9-10.72-6.48-16.31-9.33a131.39,131.39,0,0,1-17.09-10.69,25.57,25.57,0,0,0-7.66-4.28c-1.22-.35-3.93-1.34-4.77.16s1.66,3.45,2.57,4.35a30.42,30.42,0,0,1,5,7.08c2.89,5.28,5,11.15,8.89,15.79a17.35,17.35,0,0,0,7,5c3.08,1.22,6.34,1.87,9.38,3.19a12.63,12.63,0,0,1,6.38,5.2c1.49,2.62,2.28,5.62,4.16,8,1.7,2.19,4.1,2.9,6.76,3.2a31.7,31.7,0,0,1,4,.58c1.34.33,2.93.69,3.86,1.78.69.79,1.26,1.71,2.38,1.87a.84.84,0,0,0,.76-.26A.55.55,0,0,0,355.85,279.48ZM352.78,277a9.12,9.12,0,0,0-3.55-1.51c-2.41-.64-5-.49-7.34-1.23-2.86-.89-4.19-3.62-5.32-6.17s-2.18-5.11-4.32-6.95c-4.48-3.86-10.71-4.11-15.81-6.72s-7.88-8.35-10.31-13.31-4.71-10-8.62-13.81a22.88,22.88,0,0,1-1.89-2.18.24.24,0,0,1,0-.12l.25,0a5.05,5.05,0,0,1,1.45.17A18.55,18.55,0,0,1,303.7,228c5.26,3.56,10.34,7.37,15.9,10.48,5.24,2.93,10.82,5.23,15.91,8.44a37,37,0,0,1,11.87,11.6c3.06,4.91,4.69,10.57,6.1,16.13.22.87.41,1.74.59,2.61a.65.65,0,0,0-.26.73c0,.1.05.21.08.31A11.86,11.86,0,0,0,352.78,277Z"/><path class="cls-2" d="M418.14,279.85c-2.37-.17-4.75-.12-7.13-.1s-4.48-.09-6.73-.19c-4.43-.2-8.93-.12-13.17,1.31s-8.3,3.46-12.39,5.3c-3.57,1.61-7.46,2.8-10.78,4.92a17.6,17.6,0,0,0-4.42,4.1,11.9,11.9,0,0,0-2.65,5.16.7.7,0,0,0,.11.52,2.36,2.36,0,0,0,0,.37c.14.9,1.5.52,1.36-.37,0,.22.06,0,.24,0s.51-.22.77-.3a12.36,12.36,0,0,1,2-.42,23.45,23.45,0,0,1,4.51-.15c2.41.1,4.81.31,7.23.19a33.49,33.49,0,0,0,6.6-1c8.19-2.05,14.94-7.6,22-12a48.37,48.37,0,0,1,12.66-5.95A.71.71,0,0,0,418.14,279.85Zm-23,12.5A41,41,0,0,1,382.71,298a32.79,32.79,0,0,1-7,.81c-2.62,0-5.22-.3-7.84-.27a18.48,18.48,0,0,0-4.31.52,6.87,6.87,0,0,0-.87.25,13.79,13.79,0,0,1,2-3.3,16.19,16.19,0,0,1,3.73-3.52c3.1-2,6.74-3.16,10.12-4.66,4-1.78,7.91-3.72,12-5.23a33,33,0,0,1,12.75-1.64c2.46.09,4.91.25,7.38.23l3.55,0C407.35,283.87,401.38,288.46,395.12,292.35Z"/><path class="cls-3" d="M313.08,293.86a112.58,112.58,0,0,1-5,24.59c-2.36,7.14-6.06,13.7-12.31,18.11a36.13,36.13,0,0,1-21.29,6.17,58.64,58.64,0,0,1-24-5.86,47.31,47.31,0,0,1-17.37-14.19c-9.64-12.55-13.65-28.07-19.71-42.43a87.33,87.33,0,0,0-11.76-20.47,78.23,78.23,0,0,0-16.36-15.42,1.07,1.07,0,0,1,.53-2,106.34,106.34,0,0,0,12.19-1.69c6.62-1.39,13.18-3.84,18.2-8.51a24.24,24.24,0,0,0,6.56-9.85L224.5,224a77.54,77.54,0,0,0,16.8,13A51.15,51.15,0,0,0,253.81,242a67.45,67.45,0,0,0,14.25,1.46h.69a61,61,0,0,0,14.07-1.89c.51,1.95,1.06,3.89,1.66,5.8h0c7.47,6.71,17.13,10.21,26.45,13.54a1.13,1.13,0,0,1,.6.5.88.88,0,0,1,.38.63c.34,2.07.64,4.14.89,6.23A120,120,0,0,1,313.08,293.86Z"/><path class="cls-3" d="M321.86,457.85c-1.34,4.74-4.57,8.22-8.64,10.83a65.26,65.26,0,0,1-6.42,3.49,64.46,64.46,0,0,1-7.47,3.3,22.79,22.79,0,0,1-15.33,0c-5.25-1.83-10-4.93-14.64-7.86q-14.87-9.34-29.23-19.48c-19.24-13.49-37.93-27.77-56.54-42.12-9.09-7-18.4-13.83-26.39-22.11-7.67-8-14.26-16.88-20.61-25.91-12.12-17.25-26.12-35.75-26.42-57.77a56.1,56.1,0,0,1,2.24-16.39c1.44-4.93,3.46-10.05,7-13.9s8.86-6,13.61-8.12q8.06-3.66,16.27-7t16.52-6.17c2.49-.86,5.08-1.91,7.68-.91,2.26.88,4,2.78,5.72,4.4,7.61,7.16,15.26,14.67,20.16,24,8.73,16.66,7.91,35.86,10.41,54.12a107.7,107.7,0,0,1-10.87-12.87,32,32,0,0,0-2.93-3.7.67.67,0,0,0-1.09.76c3.81,8,9.73,14.88,15.78,21.36q4.38,4.79,8.78,9.56c12.55,13.68,25.12,27.36,38.3,40.44.68-7.29,1.58-14.56,2.75-21.78,1.23-7.64,2.8-15.21,4.47-22.77a162.68,162.68,0,0,0,3.81-22.89,183,183,0,0,0-.23-23.42c-.43-7.49-.89-15-1.33-22.44a28.28,28.28,0,0,0-12.77-9.85c-6.28-2.54-13.1-3.31-19.81-3.63a51.41,51.41,0,0,1-9.11-.78,12.62,12.62,0,0,1-7.28-4.6,53.43,53.43,0,0,1-4.87-8.34q-2.37-4.58-4.48-9.29c-2.42-5.41-5.91-12.13-2.94-18a24.78,24.78,0,0,1-.6-10c.41-4.29.88-8.58,1.31-12.87l.68-6.6c.18-1.77.16-3.88,1.53-5.21,2.87-2.78,6.18,1.53,7.42,3.88a22.18,22.18,0,0,1,2,5.82c1.38-1.86,3.26-3,5.71-2a7.42,7.42,0,0,1,3.54,4,38.14,38.14,0,0,1,2.17,5.95c.55,2,.81,4.11,1.83,5.91s2.9,3.37,4.4,4.9a62,62,0,0,0,4.55,4.48,20.39,20.39,0,0,0,5.58,2.93,55.41,55.41,0,0,1,8.59,4.44,1,1,0,0,1,.65-.18c3,.19,6,.31,9,.6a35.15,35.15,0,0,1,8.4,2c2.45.88,4.87,1.84,7.26,2.85a49.64,49.64,0,0,1,6.46,3.08c4,2.4,6.86,6.59,9,10.59,4.24,7.77,5.91,16.54,6.5,25.29a1.29,1.29,0,0,1,.22.42q2.36,8.2,4.36,16.53a511.69,511.69,0,0,1,11.2,69.19c2.3,23.35,3.45,46.79,4.32,70.23.22,5.92.42,11.86.62,17.78C322.8,447.34,323.29,452.77,321.86,457.85Z"/><path class="cls-3" d="M329.53,175.2c-1.87,3.82-4.68,6.91-7.12,10.1a45.78,45.78,0,0,1-4.32,5.36c-1.14,1.07-2.49,1.76-3.83,1.36-.55,2.82-1.13,5.62-1.75,8.42a98.43,98.43,0,0,1-3.47,12.8,34.31,34.31,0,0,1-6.3,10.54c-5.33,6.14-11.08,11.95-17.66,15.71a41.25,41.25,0,0,1-22.38,5.62,41.32,41.32,0,0,1-22.4-5.62c-6.57-3.76-12.32-9.57-17.65-15.71a33.71,33.71,0,0,1-6.29-10.54,96.93,96.93,0,0,1-3.49-12.8c-.62-2.8-1.2-5.6-1.75-8.42-1.33.4-2.69-.29-3.82-1.36A45.85,45.85,0,0,1,203,185.3c-2.44-3.19-5.24-6.28-7.12-10.1-2-4-2-8.6-1.42-13.17a65.45,65.45,0,0,1,1.25-7,14.41,14.41,0,0,1,2-5.46c2-2.69,5.11-2.24,7.73-1.43-.06-1-.11-2-.17-2.93a1.09,1.09,0,0,1,0-.26c0-.71-.07-1.41-.09-2.12,0-.24,0-.48,0-.72a1.5,1.5,0,0,1,0-.38c0-.33,0-.67,0-1a13.57,13.57,0,0,1,2.32-7.58,60.51,60.51,0,0,1,5.13-5.37,14.18,14.18,0,0,0,3.35-7c.58-2.64,1.06-5.33,2.5-7.67,2.85-4.64,7.91-7.15,12.9-8.84,2.88-1,5.82-1.75,8.68-2.75a81.92,81.92,0,0,0,8.71-3.62c2.66-1.29,5.29-2.64,8.28-2.89a24.17,24.17,0,0,1,9.06,1.47,55.34,55.34,0,0,1,8.36,3.42c2.57,1.3,5,2.94,7.55,4.18a13.64,13.64,0,0,0,3.93,1.29,16,16,0,0,0,4.58-.15c2.75-.37,5.51-.74,8.17.28,4.38,1.69,7.23,5.61,10.56,8.72,3.62,3.38,9,5,10.84,10a23.37,23.37,0,0,1,1,8.6,49.52,49.52,0,0,1-.93,8.76,1.31,1.31,0,0,1,.09.59q-.13,3-.35,6c2.62-.81,5.71-1.26,7.73,1.43a14.77,14.77,0,0,1,2.07,5.46,68,68,0,0,1,1.23,7C331.51,166.6,331.51,171.18,329.53,175.2Z"/><path class="cls-3" d="M369.91,345.76c-1.47,18.58-4.13,37.08-6.41,55.57-1.12,9.1-2.13,18.21-3.5,27.28-1.32,8.67-2.92,17.49-5.9,25.77a27.87,27.87,0,0,1-5.33,9.54,21.73,21.73,0,0,1-9.88,5.78,97.36,97.36,0,0,1-26.21,4.13,1.06,1.06,0,0,1-.54-2,16,16,0,0,0,3.54-2.56c4.59-4.41,6.43-10.86,7-17,.32-3.71.25-7.44.24-11.16,0-3.52-.18-7.28,1.17-10.61,1.21-3,3.37-5.53,4.95-8.33a51.6,51.6,0,0,0,4-8.89,68.94,68.94,0,0,0,3.46-19.2c.65-14.26-2.43-28.28-6-42-3.69-14.38-7.57-28.65-9.39-43.42-1.62-13.12,1-44.15,1-44.31a.86.86,0,0,1,.21-.45,1.05,1.05,0,0,1,1.24-.61c2.07.6,4.11,1.26,6.15,2a121,121,0,0,1,23,10.83c6.16,3.75,12.29,8.53,15.23,15.31,1.71,4,2.15,8.24,2.4,12.5q.42,6.94.5,13.93Q371,331.81,369.91,345.76Z"/><path class="cls-4" d="M218,194.27c.84,4,.36,8.18.33,12.18a27.64,27.64,0,0,0,.46,5.92,14.67,14.67,0,0,0,2.26,5.3,34.54,34.54,0,0,0,3.8,4.56c1.38,1.49,2.72,3,4,4.58a113.5,113.5,0,0,1,7.29,9.79l-.16.14a113.57,113.57,0,0,1-8.73-8.54c-1.38-1.49-2.71-3-4-4.59a43.6,43.6,0,0,1-3.66-5,16.22,16.22,0,0,1-2.17-5.95,27.54,27.54,0,0,1-.16-6.21c.31-4.07,1-8.07.51-12.1Z"/><path class="cls-4" d="M224.56,247.61c.67,0,1.33.09,2,.13s1.31.14,2,.23a5.14,5.14,0,0,1,1.92.33,4,4,0,0,1,.78.5,4.38,4.38,0,0,0,.83.57l.07.2a1.65,1.65,0,0,1-1.1.71,3.67,3.67,0,0,1-1.12.06,5.4,5.4,0,0,1-1.84-.74c-.6-.26-1.2-.55-1.79-.84s-1.19-.6-1.76-.94Z"/><path class="cls-4" d="M230.89,242.89a35,35,0,0,0-6.16-6.06c-2.24-1.83-4.56-3.62-6.77-5.55a74,74,0,0,1-6.45-5.93c-1-1.08-1.95-2.16-2.87-3.32a14.74,14.74,0,0,1-2.34-3.81l.18-.12c1,1.05,2.12,2,3.23,2.89s2.22,1.89,3.29,2.86c2.17,1.93,4.05,4.15,6.11,6.19s4.19,4,6.32,6a33.38,33.38,0,0,1,5.64,6.74Z"/><path class="cls-4" d="M207.25,221.07c1,2,2.07,4.06,3.21,6s2.28,3.91,3.52,5.8,2.67,3.65,3.82,5.59a58.54,58.54,0,0,1,3.29,6l-.17.13a26.42,26.42,0,0,1-4.86-4.94,38.55,38.55,0,0,1-3.54-5.93q-1.62-3-3-6.19c-.9-2.11-1.74-4.24-2.46-6.41Z"/><path class="cls-4" d="M316.28,173.58c.13,1.54.18,3.08.23,4.62s0,3.09-.06,4.63a23,23,0,0,1-.34,4.62,15,15,0,0,1-1.68,4.4l-.21,0a20,20,0,0,1-.21-4.67,36.29,36.29,0,0,1,.76-4.49c.24-1.5.47-3,.68-4.52s.41-3,.61-4.56Z"/><path class="cls-4" d="M206,189.81l1.94-5.87.48-1.46c.08-.25.15-.48.25-.75a1.51,1.51,0,0,1,.59-.76,1.43,1.43,0,0,1,1-.11,3.87,3.87,0,0,1,.79.27,12.67,12.67,0,0,1,6,5,13.07,13.07,0,0,1,2,6.05l-1.11-.29a4.17,4.17,0,0,1,2.91-1.87,5.72,5.72,0,0,1,3.36.49,6.67,6.67,0,0,1,2.5,2.26,11.08,11.08,0,0,1,1.38,2.94c.64,2,.81,4.1,1.25,6a12.16,12.16,0,0,0,.9,2.67,12.58,12.58,0,0,0,1.53,2.37c1.19,1.49,2.66,2.9,4.05,4.36l4.21,4.34a10.69,10.69,0,0,0,2.11,1.73,14.6,14.6,0,0,0,2.56,1.09l5.74,1.89,5.74,1.82c1.92.59,3.84,1.15,5.76,1.71,3.84,1.1,7.72,2,11.68,3a51.53,51.53,0,0,1,11.58,4.2,23.24,23.24,0,0,1,9.08,8.22l-.24.16a24.81,24.81,0,0,0-9.6-6.81,58.31,58.31,0,0,0-11.4-3.28l-5.94-1.2c-2-.43-4-.89-5.95-1.45s-3.91-1.16-5.84-1.8-3.85-1.31-5.75-2L244,220.6a15.79,15.79,0,0,1-3-1.39,13.35,13.35,0,0,1-2.51-2.16l-4.1-4.48c-1.35-1.5-2.77-2.93-4.06-4.63a13.2,13.2,0,0,1-2.62-5.84c-.41-2.06-.53-4.07-1-5.9a10,10,0,0,0-1.11-2.57,5.36,5.36,0,0,0-1.88-1.82,4.43,4.43,0,0,0-2.53-.46,2.9,2.9,0,0,0-2.09,1.2l-1,1.58-.07-1.86a12,12,0,0,0-1.67-5.6,12.56,12.56,0,0,0-4.14-4.22,11.17,11.17,0,0,0-1.33-.69c-.45-.23-.92-.39-1.19-.24s-.43.67-.61,1.14l-.54,1.45-2.15,5.79Z"/><path class="cls-4" d="M209.1,237.91,218.43,253a13.56,13.56,0,0,0,2.66,3.35,9.05,9.05,0,0,0,3.77,1.77,24.21,24.21,0,0,0,4.29.57c1.46.08,2.93.11,4.4.1,2.95,0,5.92-.1,8.92,0,1.49,0,3,.17,4.51.35a30.59,30.59,0,0,1,4.48,1,27,27,0,0,1,8.15,4.18c1.23.89,2.41,1.83,3.55,2.8l1.7,1.46c.57.5,1.1.94,1.71,1.53a6.46,6.46,0,0,1,.87,1,4.43,4.43,0,0,1,.59,1.34,19.09,19.09,0,0,1,.36,2.37l.49,4.43c.33,3,.6,5.92.85,8.89s.38,5.94.49,8.92c0,1.49.07,3,.07,4.47s0,3-.05,4.48a140,140,0,0,1-5.18,35.28l-.27-.06q1.35-8.79,2-17.61c.42-5.88.64-11.76.61-17.65,0-2.94-.05-5.88-.12-8.83l-.14-4.41c-.07-1.47-.12-2.94-.21-4.42-.15-2.94-.32-5.89-.55-8.83L266,275.1a18.8,18.8,0,0,0-.23-2,2.5,2.5,0,0,0-.28-.69,5,5,0,0,0-.54-.68c-4.22-3.93-8.62-8.07-14.06-9.8a29.58,29.58,0,0,0-4.18-1c-1.43-.21-2.88-.36-4.34-.44-2.92-.17-5.88-.13-8.86-.21-1.49,0-3-.11-4.48-.25a24.76,24.76,0,0,1-4.48-.73,10.26,10.26,0,0,1-4.13-2.13,14.37,14.37,0,0,1-2.74-3.66l-8.85-15.42Z"/><path class="cls-4" d="M311.09,307.74,308.62,297l-2.49-10.74c-.84-3.58-1.95-7.09-2.52-10.72-.29-1.82-.57-3.63-.77-5.47a51,51,0,0,1-.39-5.56l.27-.07a48,48,0,0,1,2.06,5.2c.3.87.56,1.76.84,2.64l.75,2.66a105.06,105.06,0,0,1,2,10.88q.92,5.44,1.67,10.92c.48,3.65,1,7.3,1.36,11Z"/><path class="cls-5" d="M287.54,204.28l-4.16,5.2a49.45,49.45,0,0,1-3.68,4.37,11,11,0,0,1-3.83,2.58,12.58,12.58,0,0,1-5.56.4,31.58,31.58,0,0,0-5.67-.12c-1.83.14-3.66.38-5.49.36a13.66,13.66,0,0,1-4.74-.86,11.74,11.74,0,0,1-4-3,48.66,48.66,0,0,0-8.16-6.93,1.07,1.07,0,0,1-.35-1.4c-.09-.48,5.55-1.73,7.59-3,1.85-1.19,3.24-3,5.12-4.11,3.56-2.21,7.9-1.3,11.12,1.05a11.4,11.4,0,0,1,4.4-2.81,6.71,6.71,0,0,1,5.59.89c1.81,1.11,3.43,2.47,5.33,3.45a25.12,25.12,0,0,0,6.07,2.17A1.07,1.07,0,0,1,287.54,204.28Z"/><path class="cls-3" d="M248.23,206.65c2.86-.25,5.57-1,8.57-1.08a18.33,18.33,0,0,1,4.42.55,21.38,21.38,0,0,0,4,.67,7.06,7.06,0,0,0,1.85-.13,5.84,5.84,0,0,0,1.72-.64,19.6,19.6,0,0,1,2-1,7.15,7.15,0,0,1,2.37-.38c3,0,5.69.57,8.56.18a13.33,13.33,0,0,1-4.22,1.08c-1.43.16-2.88.23-4.22.39a6.85,6.85,0,0,0-1.81.46,17.57,17.57,0,0,0-1.75,1,7.61,7.61,0,0,1-2.24.93,8.93,8.93,0,0,1-2.4.2c-3.17-.19-5.73-1.49-8.39-1.69S251.07,207.27,248.23,206.65Z"/><path class="cls-6" d="M357.41,152.91a10.38,10.38,0,0,1,1,4.75c-.28,7.25-6.63,12.66-7.6,19.76-.29,2.1.23,4.3-.43,6.34a9.18,9.18,0,0,1-3.54,4.23,31.69,31.69,0,0,1-11.93,5.53c-2.07.47-4.4.58-6.22,1.77s-2.35,3.21-4.31,4c-1.77.74-3.71.52-5.57.68s-4.49,1-4.66,3.24c0,.45-.73.46-.7,0a1.92,1.92,0,0,0,0-.22.32.32,0,0,1-.5-.2,12.14,12.14,0,0,1,1-6.87,14.67,14.67,0,0,1,4.67-5.26c.89-.67,1.79-1.3,2.64-2a20.21,20.21,0,0,0,2.59-2.56c1.69-2,3.26-4,4.8-6.09a17.47,17.47,0,0,0,3.2-6.26,28.62,28.62,0,0,0,.67-7.09A38.13,38.13,0,0,0,329.88,153c-.43-1.07-.91-2.13-1.44-3.16a10.78,10.78,0,0,0-1.83-2.9c-1.67-1.6-4.25-.43-6,.46a.37.37,0,0,1-.53-.34.32.32,0,0,1,.18-.28A117.93,117.93,0,0,0,324,135.47a7.52,7.52,0,0,0-.1-5.27A9,9,0,0,0,321,127c-2.25-1.69-4.79-2.91-7-4.62a35.62,35.62,0,0,1-6.54-6.5,24,24,0,0,0-2.78-3.48,7,7,0,0,0-4.51-1.42,38.2,38.2,0,0,1-8.73-.92,12.14,12.14,0,0,1-3.85-1.81,17.38,17.38,0,0,1-3.09-3.09c-1.83-2.25-3.66-4.72-6.69-5.31a4.08,4.08,0,0,0-3.78,1,3.7,3.7,0,0,0-.72,3.53c.79,2.65,4.51,3,6.09.88a.35.35,0,0,1,.61.35A13.47,13.47,0,0,1,278.6,108a13.68,13.68,0,0,1-19.7,2.5c-3-2.4-4.5-6-6.88-9a11.25,11.25,0,0,0-4.56-3.51,11.52,11.52,0,0,0-6-.58,13.73,13.73,0,0,0-9.22,6.67c-2,3.38-2.29,7.42-4.17,10.86s-5.67,4.84-9.25,6.22-7.46,3.65-7.31,8c.08,2.27,1,4.43,1.14,6.69a10.94,10.94,0,0,1-.88,5,11.53,11.53,0,0,1-7.55,6.64.31.31,0,0,1-.3-.06h0c-.59-.08-1.18-.15-1.77-.19-2.28-.17-5,0-6.51,2a10,10,0,0,0-1.37,3.8c-.34,1.59-.67,3.19-1,4.78s-.62,3.19-.91,4.79a36.13,36.13,0,0,0-.68,4.76,10.87,10.87,0,0,0,.73,4.61,27.71,27.71,0,0,0,2.1,4,67.76,67.76,0,0,0,5.13,7.44c1.72,2.14,3.81,4.1,5.08,6.56a9,9,0,0,1,1,4,19.75,19.75,0,0,1-.55,4.52,44.33,44.33,0,0,0-1.05,9.54,36.78,36.78,0,0,0,.35,4.8,41.29,41.29,0,0,1,.69,4.57,6.07,6.07,0,0,1-.35,2.11c-.24.67-.56,1.32-.74,2a6.54,6.54,0,0,0-.21,2.11,4.64,4.64,0,0,1,.44,2l.08.23a.28.28,0,0,1-.12.37,3.82,3.82,0,0,1-2.21,3.12,9.59,9.59,0,0,1-3.57.57c-1.36.05-2.71.09-4.06.05a21.11,21.11,0,0,1-7.26-1.24,14.7,14.7,0,0,1-5.07-3.69,5.41,5.41,0,0,0-4-1.86,9.07,9.07,0,0,1-3.32-.44c-3.53-1.51-3.88-6.23-6.31-8.82-5-5.3-14.58-3.23-18.75-9.64-2.39-3.67-1.35-8.32-2.66-12.32-.84-2.6-2.82-3.86-5-5.2a10.19,10.19,0,0,1-4.27-4.33,12.62,12.62,0,0,1,.84-11.59c2.33-3.91,6.16-6.57,10.09-8.7-2.25-1.25-3.26-3.69-3.43-6.23-.22-3.54,1-6.68,2.4-9.85,1.79-4.16,3.66-9,.72-13.09-1.86-2.58-5.22-5-4.55-8.56s4.57-5.5,5.37-9.09-.63-7.86,1.93-11c2-2.43,5.37-3,8.16-4.12a8.79,8.79,0,0,0,4.18-2.83c1.21-1.71,1.28-3.94,2.28-5.76a28.69,28.69,0,0,1,3.18-4,6.2,6.2,0,0,0,1.35-2.43,3.73,3.73,0,0,0-.79-3c-.83-1.26-1.51-2.53-1-4.07a8.08,8.08,0,0,1,2.51-3.36,32,32,0,0,0,3.71-3.55c1.42-1.79,1.75-4.09,2.59-6.15a18.13,18.13,0,0,1,16.37-10.87,23.65,23.65,0,0,1,5.53.84c2.14.5,4.67,1.12,6.69-.1,1.82-1.1,2.66-3.4,3.47-5.27.73-1.69,1.4-3.41,2.09-5.12,2.31-5.77,5-12.54,11.3-15,4.22-1.65,8.76-.56,13.14-.54a16.91,16.91,0,0,0,7-1.54,10.38,10.38,0,0,1,5.55-1.21c2.31.29,4.42,1.39,6.79,1.28a18.94,18.94,0,0,0,6.59-2,27.88,27.88,0,0,1,6.07-2.13,23.39,23.39,0,0,1,7-.12,91.34,91.34,0,0,1,14.14,3.14c4.76,1.34,9.45,2.87,14.06,4.64,7.48,2.85,16.08,6,21.28,12.44a19.71,19.71,0,0,1,4.08,10.27c.49,4,.27,8.16,1,12.17a15.41,15.41,0,0,0,2.08,5.52c1.25,2,3.11,3.35,4.76,4.94a37.87,37.87,0,0,1,7.58,10.28,39.64,39.64,0,0,1,3.78,12.39c.35,2.47.59,5,1.15,7.41a32.08,32.08,0,0,0,2.16,6.15c3.13,6.83,8.58,13.65,8.45,21.51a15.87,15.87,0,0,1-1.2,5.59,37.05,37.05,0,0,0-2.38,6.15C355.24,148.65,356.34,150.6,357.41,152.91Z"/><path class="cls-7" d="M327.27,209.75c-.47,3.7-1.26,8.58-5.41,9.85a4.27,4.27,0,0,1-4.7-1.35c-1.24-1.58-1.58-3.77-1.89-5.69-1.11-6.61-.58-13.28.47-19.87.16-1.56.34-3.13.57-4.68.14-1,.26-2,.48-3a4.3,4.3,0,0,1,1.16-2.28.37.37,0,0,1,.6.15,8.1,8.1,0,0,1,.34,3.25c-.05,1.08-.13,2.16-.23,3.26-.76,8.35-2.63,17.11,1,25a3.49,3.49,0,0,0,.79,1.27,1.14,1.14,0,0,0,1.42,0c.87-.62,1.06-2,1.29-2.92a34.81,34.81,0,0,0,.87-7.19,46.55,46.55,0,0,0-.45-7.27c-.33-2.37-.88-4.67-1.38-7a4,4,0,0,1-.09-1.5,2,2,0,0,1,.7-1.25,1.45,1.45,0,0,1,2.11.29,9.11,9.11,0,0,1,1.26,2.95,26.82,26.82,0,0,1,.77,3.42A49.5,49.5,0,0,1,327.27,209.75Z"/><path class="cls-1" d="M172,454.17a11.36,11.36,0,0,1-.31-3.81c0-1.49.18-3,.31-4.45.32-3.53.56-7.06,1-10.59.92-7.38,1.59-14.66,0-22-2.74-12.89-10.31-23.93-16.38-35.41a84.46,84.46,0,0,1-7-19.28c-1.69-6.76-3.13-13.61-5.53-20.17-5-13.57-14.36-24.84-21.36-37.34a94.86,94.86,0,0,1-8.74-20,84.42,84.42,0,0,1-2.13-10.23,67.41,67.41,0,0,1-1-10.52,29.14,29.14,0,0,1,.4-5c.22-1.34-1.89-1.52-2.11-.18-1.15,6.79.18,14,1.43,20.65a78.65,78.65,0,0,0,7.29,20.58c6.47,13,15.82,24.26,22,37.38,6,12.79,6.85,27.24,12.5,40.15,2.67,6.09,6.26,11.78,9.45,17.6a94.35,94.35,0,0,1,8,17.84,49,49,0,0,1,1.93,9.67,57.5,57.5,0,0,1-.32,11.58c-.44,3.94-1,7.86-1.32,11.81-.2,2.93-.6,5.88-.57,8.82a12.83,12.83,0,0,0,.53,3.8C170.54,456.37,172.45,455.45,172,454.17Z"/><path class="cls-1" d="M157.63,245.82a74,74,0,0,1,8.79-4.24c1.56-.59,3.15-1.12,4.69-1.77a33.77,33.77,0,0,1,4.56-1.7.71.71,0,0,1,.82.56,7.51,7.51,0,0,1-1.17,3.92,22.89,22.89,0,0,0-1.91,4.6c-.95,3.47-1.5,7.2-3.82,10.1a21.83,21.83,0,0,1-6.52,5.08c-2.82,1.6-5.81,2.86-8.69,4.33a34.07,34.07,0,0,0-13.56,12.19,31.29,31.29,0,0,0-3.57,8c-.89,3.09-1,6.27-1.58,9.39a15.42,15.42,0,0,1-1.53,4.43,18.08,18.08,0,0,0-2,4.37,15,15,0,0,0-.42,4.27,7.68,7.68,0,0,0,.68,3.35.58.58,0,0,1-.11.76.71.71,0,0,1-1.33.23,43.94,43.94,0,0,1-4.82-21.54c.37-6.87,3.68-12.9,6.69-18.94,2.94-5.88,6.14-11.71,10.39-16.78C147.18,251.74,152.26,248.65,157.63,245.82Z"/><path class="cls-1" d="M149.57,369.83a.68.68,0,0,1-.42,0,20.38,20.38,0,0,1-6-2.89c-1.74-1.42-3.05-3.33-4.69-4.88a13,13,0,0,0-6.38-3.62c-2.56-.44-5.25,0-7.84,0-4.29-.07-8.49-1-11.85-3.79-2.48-2.07-4.31-4.74-6.25-7.29s-3.93-4.91-6.79-6.2c-3.95-1.81-8.55-1.25-12.69-.52s-8.26,1.82-12.31.59c-3.68-1.11-6.34-4-8.73-6.82-2.6-3.11-5.1-6.4-8.58-8.61-4.09-2.59-9.19-3.53-13.91-4.18a.71.71,0,0,1-.39-1.24,55.4,55.4,0,0,1,6.6-3.92c2.17-1.22,4.19-2.66,6.3-4,3.82-2.38,8.47-4.92,13.11-3.82a19.43,19.43,0,0,1,5.61,2.53c1.93,1.16,3.86,2.32,5.86,3.35a48.54,48.54,0,0,0,6.51,2.8A34.51,34.51,0,0,0,94,318.77c5.08.54,10.2.6,15.26,1.29a21.27,21.27,0,0,1,10.63,4.44,49.44,49.44,0,0,1,8.46,9.46c2.73,3.68,5.22,7.54,7.61,11.45s4.66,7.88,7,11.84c1.24,2.14,2.5,4.25,3.79,6.36.59.93,1.18,1.86,1.7,2.83a4.9,4.9,0,0,0,1.77,2.17C150.92,369,150.28,370,149.57,369.83Z"/><path class="cls-1" d="M109,248.87a28.24,28.24,0,0,1,.28-15.6,31.27,31.27,0,0,1,2.69-6.5,49.13,49.13,0,0,1,4.23-6.1,64,64,0,0,0,4.53-6.42c1.15-2,2.07-4.05,3.28-6a15.32,15.32,0,0,1,4.4-4.77,20.69,20.69,0,0,1,4.29-2.07,29.58,29.58,0,0,1,5.28-1.55,6.26,6.26,0,0,1,4.1.26.72.72,0,0,1,.25.82c-.61,1.85-2.35,2.94-3.72,4.18a24.67,24.67,0,0,0-4.61,5.12c-2.34,3.72-2.78,8.18-4.18,12.26a21.57,21.57,0,0,1-6.47,9,51.48,51.48,0,0,0-4.52,4.09,47.77,47.77,0,0,0-3.79,4.93c-.9,1.3-1.87,2.55-2.73,3.87a9.71,9.71,0,0,0-1.92,4.37.51.51,0,0,1-.24.51s0,0,0,0h-.06a.72.72,0,0,1-1.06-.4S109,248.89,109,248.87Z"/><path class="cls-1" d="M48.67,260.1a11.26,11.26,0,0,1,4.3-1.5A44,44,0,0,1,58.2,258a35.39,35.39,0,0,1,11,1.16A40.41,40.41,0,0,1,85,267.31c2.5,2.11,4.65,4.56,7,6.87a36.47,36.47,0,0,0,8.12,5.87,48.33,48.33,0,0,1,7.67,5.16,42,42,0,0,1,6.12,6.46,47.41,47.41,0,0,1,4.79,8c.76,1.56,1.5,3.13,2.3,4.68A12.41,12.41,0,0,0,123.4,308a.75.75,0,0,1,.21.82c.09.49-.32,1.07-.9.8-1.53-.69-2.7-1.91-4.17-2.68s-3.14-1.67-4.68-2.55a70,70,0,0,1-9-6.24,31.81,31.81,0,0,0-7.92-5A47.52,47.52,0,0,0,88,290.75c-5.41-1-11.4-1.25-15.42-5.53s-5.74-10.47-9.85-14.81A33.06,33.06,0,0,0,55.71,265c-2.26-1.38-5-2-7-3.81C48.41,261,48.24,260.38,48.67,260.1Z"/><path class="cls-1" d="M144.3,217.83c2.09-1.25,4.27-2.4,6.41-3.56a23.16,23.16,0,0,1,6.54-2.62.71.71,0,0,1,.79.94,10.59,10.59,0,0,1-2,2.66,18.15,18.15,0,0,0-2.41,3.17c-1.44,2.34-2.72,4.8-4,7.24-2.28,4.37-4.33,8.87-6.95,13.05a46.44,46.44,0,0,1-8.66,10c-3.26,2.88-6.77,5.46-10.13,8.24a44.35,44.35,0,0,0-9.26,10.49c-.43.67-1.36.13-1.27-.52-1.13-5.72.37-11.12,3.28-16.05,2.57-4.34,5.82-8.25,8.71-12.37,2.74-3.9,5.41-7.87,8.5-11.51A42.45,42.45,0,0,1,144.3,217.83Z"/><path class="cls-1" d="M132.36,327.73a.6.6,0,0,1-.31.9.73.73,0,0,1-1.08,0c-1.33-1.38-3-2.34-4.38-3.65a45.94,45.94,0,0,0-3.91-3.86c-5.13-3.83-12-4.35-18.08-5.63a66.16,66.16,0,0,1-10.51-3,91.58,91.58,0,0,1-9.19-4.46.73.73,0,0,1-.21-1.21c1.33-1.14,3.24-.95,4.83-1.39,1-.28,2-.73,3-1.05a18.35,18.35,0,0,1,3.35-.72c8.26-1,15.71,3,22.36,7.44,3.08,2.05,6.3,4.08,8.85,6.8S130.47,324.49,132.36,327.73Z"/><path class="cls-1" d="M69.54,171.52a37.5,37.5,0,0,1,.12-14c.7-3.44,1.47-7.36,4.1-9.91.41-.4,1,0,1.14.42.77,2.51,1.31,5.08,1.93,7.62a61.34,61.34,0,0,0,2.32,7.5c1.88,5,4.11,9.82,6.41,14.61,1.85,3.88,3.72,7.74,5.83,11.49,2,3.55,4.13,7.05,6.17,10.59,4,6.93,7.73,14.19,9.29,22.09a35.13,35.13,0,0,1-.19,13.4c-.89,4.74-2,9.41-1.63,14.28a64.88,64.88,0,0,0,1,7.06,31.23,31.23,0,0,0,1.74,6.22c1.52,3.71,3.55,7.34,3.91,11.4.08.9-1.3,1.16-1.39.25,0-.05,0-.1,0-.14A.61.61,0,0,1,110,274c-.76-4.67-4.22-8.59-7.28-12s-6.21-6.17-9.15-9.43a28.2,28.2,0,0,1-6-9.58c-1.53-4.49-2.16-9.35-2.88-14-.75-4.88-1.44-9.77-2.56-14.58s-2.76-9.71-4.34-14.49C74.72,190.57,71.21,181.21,69.54,171.52Z"/><path class="cls-1" d="M124,286.72c-.24,1.23-.27,2.47-.41,3.71a11.8,11.8,0,0,0-.11,3.3l.13.11a.71.71,0,0,1-.82,1.15c-1.84-1.3-2.66-3.77-3.33-5.82a20.24,20.24,0,0,1-1.07-7.24,62.17,62.17,0,0,1,1.22-8.25,30.61,30.61,0,0,1,2.21-7.57c.8-1.75,1.87-3.66,3.76-4.38a.72.72,0,0,1,1,.69c-.16,1.42-.5,2.81-.63,4.23a23.14,23.14,0,0,0,.21,4.4,26.29,26.29,0,0,1,0,8.21C125.59,281.79,124.48,284.17,124,286.72Z"/><path class="cls-1" d="M157.12,311.13a37.08,37.08,0,0,0-.48,8.74,33.36,33.36,0,0,1-.44,8.58,22.33,22.33,0,0,1-3.13,7.87,26,26,0,0,0-2.39,3.85c-.3.67-.55,1.37-.81,2.05a13.39,13.39,0,0,1-.56,1.91.62.62,0,0,1-.46.42c-.45.7-1.69.23-1.28-.55a21.79,21.79,0,0,0,1-2.22,23.26,23.26,0,0,0-.48-9.35c-.79-3.68-1.8-7.32-2.66-11a89.51,89.51,0,0,1-1.94-10.51,59.43,59.43,0,0,1-.19-9.71c.31-6,1.28-12.28,4.38-17.57s8.31-9.07,13.24-12.57c2.68-1.9,5.21-3.93,7.71-6,1.78-1.51,3.26-4,5.65-4.54a.71.71,0,0,1,.79.94,16.82,16.82,0,0,1-1.89,4,10.25,10.25,0,0,0-1.34,4.7c-.06,1.77.17,3.54.26,5.3a42.05,42.05,0,0,1-.07,5,17.16,17.16,0,0,1-2.63,8.24c-1.55,2.43-3.51,4.56-5.22,6.87A37.61,37.61,0,0,0,157.12,311.13Z"/><path class="cls-1" d="M191.88,297.87c-.61,1.66-1.08,3.31-1.52,5a83.45,83.45,0,0,0-2.23,11.63c-.73,6.8-.74,13.67-1.42,20.48a73.46,73.46,0,0,1-4.64,19.32,75.24,75.24,0,0,1-3.9,8.46c-1.52,2.81-3.32,5.44-4.93,8.19a51.56,51.56,0,0,0-4.28,8.93c-1.1,3.12-1.54,6.42-2.52,9.57a.71.71,0,0,1-1.34.32,42.52,42.52,0,0,1-2.57-9.88,104.93,104.93,0,0,1-1.33-12,77,77,0,0,1,1.28-20.55,47.48,47.48,0,0,1,2.93-8.94,76.22,76.22,0,0,1,4.82-8.89c3.81-6.33,7.18-12.91,10.41-19.55a91.17,91.17,0,0,1,11.05-17.58.71.71,0,0,1,1.28.47A13.69,13.69,0,0,1,191.88,297.87Z"/><path class="cls-2" d="M205.48,352.48c-2.95,7.56-6.58,14.84-9.41,22.46-1.4,3.79-2.65,7.65-4,11.47s-2.71,7.91-3.82,11.95c-2.13,7.73-3.06,15.73-5.13,23.47a35.91,35.91,0,0,1-9.07,16.3c-1.45,1.48-3,2.88-4.36,4.41s-2.8,3.19-4.16,4.83a107.68,107.68,0,0,1-8.36,9.38c-1,.94.52,2.44,1.5,1.5,5.51-5.27,9.73-11.71,15.21-17a43.42,43.42,0,0,0,6.38-7.43,36.86,36.86,0,0,0,4-8.33c2.54-7.53,3.36-15.57,5.21-23.28,1.92-8,4.9-15.76,7.53-23.57,2.94-8.76,7.15-17,10.51-25.6C208,351.77,206,351.22,205.48,352.48Z"/><path class="cls-2" d="M168.51,426c-1.3-2.39-2.95-4.55-3.59-7.24-.72-3-.53-6.17-1-9.22-1-6-4.24-11.21-8.1-15.82a103.81,103.81,0,0,0-13.16-12.6c-4.64-3.89-9.5-8.82-10.88-14.93-.21-.88-1.56-.51-1.36.37.75,3,1.08,6.15,1.55,9.24a53.94,53.94,0,0,0,2.14,8.77,80.83,80.83,0,0,0,6.65,14.94,96.44,96.44,0,0,0,9.18,13.24c3.44,4.21,7.4,8,10.65,12.36s5.87,9.32,5.82,14.71a3.57,3.57,0,0,0-.07,1.22c0,.33-.06.67-.11,1-.14.89,1.22,1.27,1.36.38,0-.26.07-.52.1-.78a.63.63,0,0,0,.09-.58c0-.06,0-.12,0-.18,0-.31,0-.62,0-.93a10.74,10.74,0,0,1,1-2.24,11.76,11.76,0,0,0,1.33-3.81A12.77,12.77,0,0,0,168.51,426Zm.29,7.42a10.5,10.5,0,0,1-1.21,3.56c-1.23-8.74-8.5-15.76-14.15-22.23a90,90,0,0,1-17.19-28.21,56.54,56.54,0,0,1-2.7-9.64c-.26-1.46-.46-2.93-.67-4.4a36.09,36.09,0,0,0,6.29,7.5c2.13,2,4.44,3.75,6.62,5.67s4.5,4.1,6.59,6.32c4.17,4.44,8.07,9.56,9.64,15.54.81,3.06.77,6.18,1.15,9.29a18.58,18.58,0,0,0,2.8,7.65C167.65,427.22,169.17,430,168.8,433.39Z"/><path class="cls-2" d="M250.37,425.79a42.4,42.4,0,0,1-8.2-1.42,32.29,32.29,0,0,0-7.95-.92,58.94,58.94,0,0,0-15.64,2.62c-5.13,1.51-10.1,3.47-15.09,5.37-5.28,2-10.6,3.73-16,5.26s-11.14,2.9-14.51,7.69a.59.59,0,0,0,.12.85,11.19,11.19,0,0,0,1.62,0,3.65,3.65,0,0,1,.86-.3,14.57,14.57,0,0,1,2.37-.35c1.59-.12,3.2-.11,4.79-.19a41.09,41.09,0,0,0,7.35-1.48,36.77,36.77,0,0,1,9.52-1c3.19.07,6.37.42,9.55.55a47,47,0,0,0,9-.49,44.4,44.4,0,0,0,15.53-5.27c5.63-3.2,10.49-7.74,16.88-9.47A.71.71,0,0,0,250.37,425.79Zm-31.72,14.64a46.56,46.56,0,0,1-9.36.58c-3.3-.13-6.59-.5-9.89-.57a38.11,38.11,0,0,0-9.57,1.05,39.37,39.37,0,0,1-7.44,1.48c-1.92.07-3.84.07-5.75.31-.32.05-.67.09-1,.16,3.08-2.95,7.54-4.06,11.57-5.2,5.3-1.5,10.52-3.09,15.68-5.05,9.68-3.67,19.47-7.78,29.94-8.28a32.53,32.53,0,0,1,9,.82c1.78.4,3.55.85,5.34,1.15-4.44,1.87-8.26,4.88-12.36,7.46A43.26,43.26,0,0,1,218.65,440.43Z"/><path class="cls-2" d="M258.46,383.05a9.57,9.57,0,0,0-4.29.1c-1.58.33-3.15.71-4.73,1.07q-5.06,1.13-10.08,2.42a55.68,55.68,0,0,0-15.52,6.53c-2.54,1.58-4.86,3.43-7.26,5.21-2.64,1.95-5.43,3.71-8.25,5.4-2.66,1.6-5.43,3.06-8,4.81a37.28,37.28,0,0,0-6.08,5.21,40.83,40.83,0,0,0-9,15.66,1.17,1.17,0,0,0,0,.39c-.32.85,1.05,1.22,1.36.38.77-2.06,3.13-3.42,4.92-4.49,2.13-1.26,4.33-2.4,6.47-3.65a70.89,70.89,0,0,1,8-4.23,54.87,54.87,0,0,1,9.24-2.76c6.24-1.43,12.74-2.32,18.73-4.68,5.33-2.11,9.8-6,13.54-10.26,2.1-2.4,4-5,6-7.51a46,46,0,0,0,5.45-8.56A.72.72,0,0,0,258.46,383.05Zm-5.59,8c-1.76,2.37-3.58,4.73-5.46,7-3.71,4.46-8.17,8.66-13.59,10.89-6,2.47-12.57,3.32-18.84,4.75a57.81,57.81,0,0,0-9.2,2.72,64.32,64.32,0,0,0-8,4.14c-2.42,1.41-4.92,2.7-7.32,4.16a23.12,23.12,0,0,0-2.7,1.85,38.59,38.59,0,0,1,6.4-10.57,36.06,36.06,0,0,1,5.77-5.41,86,86,0,0,1,7.44-4.6c2.69-1.59,5.35-3.2,7.92-5s4.76-3.63,7.23-5.31a53.34,53.34,0,0,1,14.62-7c3.4-1,6.88-1.81,10.34-2.61,1.8-.42,3.6-.79,5.39-1.21a14,14,0,0,1,4.34-.62A45.15,45.15,0,0,1,252.87,391.06Z"/><path class="cls-2" d="M180.28,368.87a192.06,192.06,0,0,0-3-20.26c-.76-3.72-1.93-7.32-2.9-11a29.35,29.35,0,0,1-1.06-5.79c-.1-1.91,0-3.83-.1-5.75a.71.71,0,0,0-1.2-.49c-2,1.69-2.8,4.71-3.59,7.08-1.1,3.29-2.44,6.48-3.59,9.75-1.29,3.66-2.51,7.51-2.56,11.42a37,37,0,0,0,1.86,10.68c1.06,3.69,2.18,7.36,2.27,11.22.1,4-.55,8.06-.71,12.09a35,35,0,0,0,1.45,11.41,105.82,105.82,0,0,0,3.94,10.29c1.29,3.11,2.56,6.26,3.72,9.42a17.77,17.77,0,0,1,1.38,5.61c-.24,1-.85,3.07-.92,3.16-.53.7.58,1.37,1.15.79a.65.65,0,0,0,.34-.44V428a6.17,6.17,0,0,0,.8-3.16A40,40,0,0,0,178.7,419c.15-1.64,0-3.28,0-4.93a49.42,49.42,0,0,1,.24-5c.32-3.36.94-6.67,1.38-10s.74-6.59.86-9.9A150.83,150.83,0,0,0,180.28,368.87Zm-1,27.19c-.36,3.35-.95,6.66-1.39,10-.25,1.82-.44,3.65-.53,5.48s0,3.69,0,5.54a21.79,21.79,0,0,1-.39,4V421c-.71-2.54-1.85-4.93-2.76-7.4-2.56-6.94-6.28-13.63-7-21.11-.39-4,.18-8.07.47-12.1a35.81,35.81,0,0,0-.89-11.58c-.89-3.52-2.11-6.95-2.73-10.53a25.1,25.1,0,0,1,.86-11.48c1.18-4.14,2.94-8.06,4.33-12.12.5-1.43.94-2.87,1.5-4.28a15.66,15.66,0,0,1,1.12-2.39,38.34,38.34,0,0,0,.67,8c.74,3.24,1.79,6.41,2.62,9.64A143.43,143.43,0,0,1,178.57,366a175.35,175.35,0,0,1,1.27,20.35C179.82,389.57,179.62,392.82,179.28,396.06Z"/><path class="cls-2" d="M262.36,344.18a31.58,31.58,0,0,0-8.5,1.52c-2.85.79-5.7,1.49-8.59,2.12-5.85,1.25-11.57,2.61-17,5.21a66.71,66.71,0,0,0-14.09,8.74,53.49,53.49,0,0,0-11.08,13.39c-1.68,2.75-3.2,5.58-4.81,8.37s-4.1,8.82-4.12,8.83c-.72.54,0,1.76.71,1.22,2.22-1.66,4.4-3.38,6.72-4.91,2.48-1.64,5.15-2.94,7.67-4.51s4.87-3.27,7.42-4.73a76.27,76.27,0,0,1,7.87-3.84c5-2.15,10.27-3.86,14.81-6.89a42.67,42.67,0,0,0,10.48-10.33,58.13,58.13,0,0,1,5.88-7.39c2.17-2.13,5-3.4,7.12-5.6A.71.71,0,0,0,262.36,344.18Zm-6.72,5a36.35,36.35,0,0,0-5.31,6.17c-3,4.15-6.16,8.13-10.32,11.21-4.4,3.25-9.52,5-14.51,7.14-2.61,1.09-5.2,2.23-7.7,3.55s-5,3-7.44,4.58c-2.74,1.77-5.63,3.26-8.4,5-2,1.26-3.93,2.68-5.82,4.12a37.87,37.87,0,0,1,2.94-5.87c1.39-2.42,2.72-4.86,4.13-7.27a57.38,57.38,0,0,1,10.42-13.62,59.19,59.19,0,0,1,13.49-9,55.32,55.32,0,0,1,7.89-3.36c2.77-.89,5.61-1.54,8.46-2.16,3.1-.68,6.2-1.31,9.26-2.17a48.77,48.77,0,0,1,7.63-1.76C258.83,346.91,257.11,347.87,255.64,349.15Z"/><path class="cls-2" d="M247.63,288.75c-4.92.68-9.58,3.56-13.49,6.5a37.15,37.15,0,0,0-5.86,5.56c-1.82,2.12-3.39,4.44-5.16,6.6-3.37,4.09-7.78,7.38-10.37,12.07-2.4,4.32-3,9.29-3.39,14.13-.46,5.46-.71,11.16-3.3,16.11l-.12.08a.72.72,0,0,0,.54,1.3c.24,0,.66-.41.68-.45,4.07-2.83,7.1-6.89,11-10,3.66-3,7.62-5.52,11.35-8.4a40.21,40.21,0,0,0,9.54-9.72c2.93-4.56,3.89-9.84,4.51-15.13a45.58,45.58,0,0,1,1.65-9.29c1-2.89,2.32-5.63,3.33-8.51C248.7,289.05,248.12,288.68,247.63,288.75Zm-3.38,7.74a33.69,33.69,0,0,0-1.78,7.8c-.65,5.43-1.1,11-3.73,15.91-4.37,8.19-13.08,12.87-20.19,18.34a54.4,54.4,0,0,0-5.92,5.23c-1.38,1.4-2.74,2.84-4.23,4.14,3-8.06,1.34-17.21,4.44-25.31,1.91-5,6-8.46,9.59-12.27,3.7-4,6.46-8.69,10.56-12.33a39.81,39.81,0,0,1,7-4.88,25.14,25.14,0,0,1,6.77-2.77C245.94,292.41,245,294.42,244.25,296.49Z"/><path class="cls-2" d="M195.92,341.72a40.84,40.84,0,0,0-1.46-6.91c-1.25-4.42-2.83-8.77-3.61-13.32a71.69,71.69,0,0,1-.85-8.28c-.12-2.13.17-4.42-.46-6.49a.72.72,0,0,0-1.18-.31c-3.17,2.94-4.81,7.19-5.8,11.31a47,47,0,0,0-.88,15.15c.46,5.34,1.4,10.63,1.7,16,.14,2.49,0,5,0,7.45a30.88,30.88,0,0,0,1,6.7c1.16,4.44,6.48,12.07,6.48,12.12,0,.46,1.52-.59,1.38-.74a34.49,34.49,0,0,1,.65-6.23c.35-2.27.4-4.56.71-6.84.6-4.35,1.71-8.61,2.19-13A31.18,31.18,0,0,0,195.92,341.72Zm-1.37,5c-.33,4.52-1.49,8.91-2.17,13.38-.38,2.48-.43,5-.81,7.47-.26,1.74-.59,3.46-.69,5.21a26.5,26.5,0,0,1-4.82-9.14,28.69,28.69,0,0,1-1.17-6.3c-.16-2.3,0-4.6,0-6.9-.3-10.14-3.3-20.24-1.37-30.39.78-4.13,2.1-8.54,4.95-11.74.19,1.48.05,3,.13,4.51q.17,3.5.63,7a87.71,87.71,0,0,0,3.34,13.44,64.52,64.52,0,0,1,1.72,6.7A27,27,0,0,1,194.55,346.77Z"/><path class="cls-8" d="M139.56,376a66.56,66.56,0,0,0-5.47-15.85c-4.67-9.58-11.49-18.45-20.3-24.56a35.42,35.42,0,0,0-6.74-3.79,31.26,31.26,0,0,0-8.42-1.95c-5.45-.6-11.42-.85-16.73.69a38.05,38.05,0,0,0-3.75,1.35l-.6.23c-4.53,1.24-7.86,5.36-10.79,8.76a105.13,105.13,0,0,0-10.48,14.73c-5.44,9-11,18.44-13.24,28.86a33.11,33.11,0,0,0-.23,14.59c1.2,5.14,4.11,9.14,7.74,12.86,4.5,4.61,9.44,8.75,14,13.3,4.11,4.12,7.86,8.59,12.25,12.42a36.82,36.82,0,0,0,14.08,8,34.83,34.83,0,0,0,15.1.64c10.57-1.81,19.78-8.16,26.37-16.48a34.75,34.75,0,0,0,4.38-7,44.27,44.27,0,0,0,2.69-8.63c1.42-6.25,1.63-12.65,1.7-19A89.64,89.64,0,0,0,139.56,376Zm-.81,29.32a57.14,57.14,0,0,1-1.42,9,39.27,39.27,0,0,1-2.69,8.21,42.25,42.25,0,0,1-10.1,12.54,38.94,38.94,0,0,1-12.77,7.62c-9.47,3.37-20,2.8-28.55-2.68-4.65-3-8.51-7-12.27-11-4-4.22-8.09-8.24-12.35-12.17-2.19-2-4.38-4.06-6.47-6.19a32,32,0,0,1-5.06-6.2,24.19,24.19,0,0,1-2.94-13.32c.45-9.49,4.69-18.58,9.33-26.71,2.91-5.1,5.83-10.22,9.19-15.06a72.33,72.33,0,0,1,10.23-12.13,17.69,17.69,0,0,1,2.77-2.12,1,1,0,0,0,.72-.23,5.19,5.19,0,0,1,.91-.57,9.74,9.74,0,0,1,1.62-.47.83.83,0,0,0,.58-.38l.55-.2a29.54,29.54,0,0,1,3.68-1.14,32.06,32.06,0,0,1,7.76-.65c5.49.05,11.31.31,16.31,2.83,9.09,4.57,16.29,12.55,21.49,21.16A68,68,0,0,1,139,387,142.56,142.56,0,0,1,138.75,405.32Z"/><path class="cls-8" d="M133.06,375.2a34.54,34.54,0,0,0-3.59-10.89,55.37,55.37,0,0,0-5.92-9.56,46.67,46.67,0,0,0-17.21-13.88,30.53,30.53,0,0,0-20.79-1.28,7.63,7.63,0,0,0-3.36,1.68,1.36,1.36,0,0,0-.12.17C76.37,344,72,349.29,68.65,354.38c-4.33,6.69-8,15.16-7.3,23.3a39.89,39.89,0,0,0,3.81,12.68,97.42,97.42,0,0,0,6.63,12.06c4.22,6.61,8.94,14,16.76,16.67,8.13,2.75,16.93.15,24.46-3.17a62.72,62.72,0,0,0,11-5.84,16.43,16.43,0,0,0,6.61-9.52A96.54,96.54,0,0,0,132.72,388,51.82,51.82,0,0,0,133.06,375.2Zm-3.14,18.33c-.59,3.91-1,8.24-3.41,11.52-2.22,3-5.72,4.81-9,6.49-7,3.58-14.73,7-22.76,6.66a18.91,18.91,0,0,1-10.61-3.7,33.8,33.8,0,0,1-7.46-8.31c-4.76-7-9.39-14.36-12-22.44a24.81,24.81,0,0,1-1-12.35,42.29,42.29,0,0,1,4.09-11.53c3-5.92,7.32-11.95,13.07-15.51a16.44,16.44,0,0,1,4.53-2,.9.9,0,0,0,.71-.89l.9-.21a34.48,34.48,0,0,1,4.17-.67,28.23,28.23,0,0,1,10.24.57c6.75,1.74,13,6.35,17.67,11.37a52.65,52.65,0,0,1,10.75,17.53C132.58,377.54,131.06,385.91,129.92,393.53Z"/><path class="cls-8" d="M112,351.83c-3-3.3-6.59-5.38-10.57-7.25-2.2-1-4.56-2.05-7-2a8.76,8.76,0,0,0-5.48,2.22,39.1,39.1,0,0,0-5.2,4.58A18,18,0,0,0,80.09,356a25.72,25.72,0,0,0,0,15.53A24.17,24.17,0,0,0,89,383.16a18.14,18.14,0,0,0,14.44,3.49c7.83-1.51,14.55-7.39,15.54-15.49C119.84,364.13,116.68,357,112,351.83Zm-4.85,31.55a16.2,16.2,0,0,1-14.58-.28,23.8,23.8,0,0,1-9.45-9.55,22.62,22.62,0,0,1-1.52-15.63,16.51,16.51,0,0,1,3.52-7.12,28.43,28.43,0,0,1,3.47-3.2.91.91,0,0,0,.55-.28,7.45,7.45,0,0,1,5.57-2.74,14.8,14.8,0,0,1,5.71,1.73,31.7,31.7,0,0,1,8.78,5.51c4.48,4.26,7.72,10.32,7.89,16.59C117.29,375.22,113.29,380.65,107.17,383.38Z"/><path class="cls-8" d="M103.19,367.84a15.41,15.41,0,0,0-4.13-5.11,13.3,13.3,0,0,0-6.33-2.46c-3.94-.51-9.17,2.55-8,6.77a1,1,0,0,0,.1.46c1,2.13,1.53,4.46,2.44,6.63a11.71,11.71,0,0,0,4.44,5.48,14.33,14.33,0,0,0,7,2.43c2.27.1,4.94-.67,6.32-2.6C107.49,376.06,104.88,371,103.19,367.84Zm.44,10.1c-.87,1.72-3.3,2.2-5,2.09A12.32,12.32,0,0,1,92.81,378c-3.7-2.37-4.25-6.64-5.81-10.41a1,1,0,0,0-.09-.31c-1.87-3.41,3.2-5.34,5.82-5A11.22,11.22,0,0,1,98,364.39a13,13,0,0,1,3.36,4.21,27.26,27.26,0,0,1,2.09,4.6C103.87,374.64,104.36,376.49,103.63,377.94Z"/><path class="cls-8" d="M429.34,104.32c-1.53-6.07-4.88-11.53-8.43-16.62a85.68,85.68,0,0,0-12.33-14c-9.2-8.51-19.76-15.32-30.37-21.92-5.94-3.71-12.37-6.35-18.71-9.28a28.07,28.07,0,0,0-4.24-1.49c-1.59-.46-3.12-1-4.68-1.58-2.76-1-5.45-.4-8.18.4a43.63,43.63,0,0,0-5.16,1.88,13.82,13.82,0,0,0-6.34,3.1,40.51,40.51,0,0,0-6,5.6A42.46,42.46,0,0,0,317.11,66a44.74,44.74,0,0,0-1.19,20c1.09,6.42,3.88,12.31,6.2,18.35a99.45,99.45,0,0,1,5,20.06c1,6.53,1.7,13.24,3.73,19.56,1.72,5.32,4.57,10.62,9.27,13.87,4.33,3,10,4,15.1,4.77a70.38,70.38,0,0,0,21-.65,73.88,73.88,0,0,0,16-4.45,66.66,66.66,0,0,0,26.14-19.08C426.2,129,432.46,116.79,429.34,104.32Zm-1.23,8.91c-.49,6.24-3.11,12.19-6.45,17.41a64.5,64.5,0,0,1-22.85,21.53,74.74,74.74,0,0,1-32.24,8.89,59.32,59.32,0,0,1-18.52-1.92,19.31,19.31,0,0,1-11.91-8.38c-3.21-5-4.54-10.89-5.52-16.7-1.1-6.53-1.88-13.12-3.34-19.58-1.42-6.25-3.84-12-6.16-18A48.49,48.49,0,0,1,317.3,78a46.15,46.15,0,0,1,4.15-18.08,35.1,35.1,0,0,1,9.69-12.7,22.33,22.33,0,0,1,3.33-2.41.91.91,0,0,0,1,0c.75-.4,1.52-.77,2.3-1.12l.35,0a.92.92,0,0,0,.79-.45,39,39,0,0,1,4.45-1.54,18.47,18.47,0,0,1,3.9-.78A10.86,10.86,0,0,1,351.55,42c1.39.52,2.82.9,4.24,1.33a33.7,33.7,0,0,1,4.81,2c3,1.41,6,2.6,9,4,5.69,2.69,10.95,6.33,16.23,9.73a174.86,174.86,0,0,1,14.56,10.33c9.26,7.39,17.49,16,23.28,26.44C426.66,101.16,428.59,107,428.11,113.23Z"/><path class="cls-8" d="M411.48,103a30.52,30.52,0,0,0-4.08-12.8,45.7,45.7,0,0,0-10-11.27c-4-3.44-8.37-6.5-12.53-9.77-4.34-3.4-8.69-6.73-13.17-9.94C363.07,53,354.91,45.53,344,44.05a13.49,13.49,0,0,0-5.06.39,1,1,0,0,0-.71-.14c-3.47.65-5.65,3.84-7,6.82a52.8,52.8,0,0,0-3.44,10.49c-2.3,10-1.56,20.61,0,30.68,1.47,9.71,3.63,19.49,7.9,28.38,4.06,8.44,10.31,16.8,19.25,20.37,8.43,3.37,18,2.23,26.43-.45,8.19-2.6,16.25-6.72,22.1-13.15A32.13,32.13,0,0,0,411.48,103Zm-6,18.33c-4.21,7-11.21,11.86-18.59,15.08-7.78,3.39-16.74,5.68-25.26,4.43a26.07,26.07,0,0,1-11.56-4.61,38.46,38.46,0,0,1-9.45-10.56c-5.07-7.88-7.81-17-9.65-26.07-1.91-9.48-3.16-19.25-2.53-28.92a57.85,57.85,0,0,1,2.34-12.72c.95-3.22,2.05-6.72,4.24-9.35a7.33,7.33,0,0,1,2.14-1.76,1.1,1.1,0,0,0,.44,0c1.07-.25,2.12-.63,3.21-.81a11.72,11.72,0,0,1,4.17.25,33.43,33.43,0,0,1,7.37,2.33c4.42,2,8.28,4.9,12.13,7.81,4.26,3.23,8.7,6.24,13,9.44,4,3,7.95,6.23,12,9.28,7.49,5.69,15.4,12,18.59,21.16A30.47,30.47,0,0,1,405.5,121.28Z"/><path class="cls-8" d="M395,86.35a1,1,0,0,0-.21-.46c-.12-.14-.23-.29-.34-.44s-.28-.44-.43-.66a1.13,1.13,0,0,0-.25-.24A30.7,30.7,0,0,0,389,78.71c-2.81-2.36-6.56-3.65-9.85-5.2-6.74-3.19-13.25-7.79-20.87-8.49a19.14,19.14,0,0,0-16,6.53C338,76.28,336.53,82.73,337.4,89c.51,3.64,2,6.92,3.29,10.32,1.35,3.56,2.31,7.26,3.75,10.79,2.52,6.2,6,11.8,11.22,16.11,4.73,3.93,10.91,7,17.21,6.58s12-4,15.89-8.82a45.08,45.08,0,0,0,8.79-19.21C398.76,98.46,398.22,91.9,395,86.35ZM389.73,119c-3.09,5.11-7.54,9.44-13.42,11.12s-11.7-.17-16.62-3.42a34.16,34.16,0,0,1-11.64-13.42,72.79,72.79,0,0,1-3.86-9.78c-1.07-3.32-2.38-6.52-3.54-9.8-2-5.64-2.22-12.18.73-17.55,2.75-5,8.09-8.82,13.83-9.21,8-.56,14.8,4.34,21.66,7.64,1.72.83,3.46,1.62,5.19,2.44a29.56,29.56,0,0,1,5.15,2.75c2.31,1.75,3.78,4.35,5.5,6.66C399.22,96.52,395.5,109.49,389.73,119Z"/><path class="cls-8" d="M387.53,96.67a23.28,23.28,0,0,0-11.22-9.46c-5.18-2.08-10.48-1.48-15.41.78a1,1,0,0,0-.28.05c-6.38,2.53-9.12,9.29-9.21,15.78a23.75,23.75,0,0,0,1.84,9.67,28.16,28.16,0,0,0,7.43,9.43,16.36,16.36,0,0,0,6.05,3.66,12,12,0,0,0,6.51-.17,21,21,0,0,0,10.54-6.5,25.8,25.8,0,0,0,5.54-11A16.11,16.11,0,0,0,387.53,96.67Zm.24,9.82a24.13,24.13,0,0,1-4,10.12,19.33,19.33,0,0,1-8.24,6.92,15.9,15.9,0,0,1-6.13,1.44,10.22,10.22,0,0,1-5.94-2.32c-5.42-4-9.47-9.72-10-16.53-.47-5.85,1.24-13,6.86-15.77a1,1,0,0,0,.49-.11c4.29-2.2,8.95-3.09,13.63-1.58a21.33,21.33,0,0,1,9.87,6.9A14.44,14.44,0,0,1,387.77,106.49Z"/></g></svg>